<svg width="48" height="48" viewBox="0 0 48 48" fill="none" xmlns="http://www.w3.org/2000/svg">
<path d="M28.1 21.8H41.5V12.5H28.1V21.8ZM34.85 19.95L29.6 16V14L34.8 17.95L40 14V16L34.85 19.95ZM3 42C2.2 42 1.5 41.7 0.9 41.1C0.3 40.5 0 39.8 0 39V9C0 8.2 0.3 7.5 0.9 6.9C1.5 6.3 2.2 6 3 6H45C45.8 6 46.5 6.3 47.1 6.9C47.7 7.5 48 8.2 48 9V39C48 39.8 47.7 40.5 47.1 41.1C46.5 41.7 45.8 42 45 42H3ZM29.55 39H45V9H3V39H3.35C4.81667 36.7 6.69167 34.8833 8.975 33.55C11.2583 32.2167 13.75 31.55 16.45 31.55C19.15 31.55 21.6417 32.2167 23.925 33.55C26.2083 34.8833 28.0833 36.7 29.55 39ZM16.45 28C18.1167 28 19.5333 27.4167 20.7 26.25C21.8667 25.0833 22.45 23.6667 22.45 22C22.45 20.3333 21.8667 18.9167 20.7 17.75C19.5333 16.5833 18.1167 16 16.45 16C14.7833 16 13.3667 16.5833 12.2 17.75C11.0333 18.9167 10.45 20.3333 10.45 22C10.45 23.6667 11.0333 25.0833 12.2 26.25C13.3667 27.4167 14.7833 28 16.45 28ZM7.15 39H25.75C24.563 37.591 23.158 36.497 21.535 35.718C19.9117 34.9393 18.2167 34.55 16.45 34.55C14.6833 34.55 12.9917 34.9417 11.375 35.725C9.75833 36.5083 8.35 37.6 7.15 39ZM16.45 25C15.6 25 14.8875 24.7125 14.3125 24.1375C13.7375 23.5625 13.45 22.85 13.45 22C13.45 21.15 13.7375 20.4375 14.3125 19.8625C14.8875 19.2875 15.6 19 16.45 19C17.3 19 18.0125 19.2875 18.5875 19.8625C19.1625 20.4375 19.45 21.15 19.45 22C19.45 22.85 19.1625 23.5625 18.5875 24.1375C18.0125 24.7125 17.3 25 16.45 25Z" fill="#613D96"/>
</svg>
