<svg width="48" height="48" viewBox="0 0 48 48" fill="none" xmlns="http://www.w3.org/2000/svg">
<path d="M11 36C10.2 36 9.5 35.6917 8.9 35.075C8.3 34.4583 8 33.7667 8 33V9C8 8.2 8.3 7.5 8.9 6.9C9.5 6.3 10.2 6 11 6H43C43.8 6 44.5 6.3 45.1 6.9C45.7 7.5 46 8.2 46 9V33C46 33.7667 45.7 34.4583 45.1 35.075C44.5 35.6917 43.8 36 43 36H11ZM27 26L11 12.7V33H43V12.7L27 26ZM27 22.05L42.75 9H11.25L27 22.05ZM5 42C4.2 42 3.5 41.6917 2.9 41.075C2.3 40.4583 2 39.7667 2 39V11.05H5V39H41V42H5Z" fill="#613D96"/>
</svg>
