<svg width="48" height="48" viewBox="0 0 48 48" fill="none" xmlns="http://www.w3.org/2000/svg">
<path d="M17.85 22.35L22.35 17.85L18.6 14.1L16.2 16.5L14.1 14.4L16.5 12L12.75 8.3L8.25 12.8L17.85 22.35ZM35.15 39.75L39.65 35.2L35.9 31.45L33.5 33.85L31.4 31.75L33.8 29.35L30.1 25.65L25.6 30.15L35.15 39.75ZM13.8 42H6V34.2L15.7 24.5L4 12.8L12.7 4L24.5 15.75L33.4 6.85C33.7 6.55 34.0333 6.33333 34.4 6.2C34.7667 6.06667 35.1333 6 35.5 6C35.8667 6 36.2333 6.06667 36.6 6.2C36.9667 6.33333 37.3 6.55 37.6 6.85L41.15 10.4C41.45 10.7 41.6667 11.0333 41.8 11.4C41.9333 11.7667 42 12.1333 42 12.5C42 12.8667 41.9333 13.2333 41.8 13.6C41.6667 13.9667 41.45 14.3 41.15 14.6L32.25 23.5L44 35.25L35.25 43.95L23.55 32.25L13.8 42ZM9 39H12.5L32.15 19.3L28.65 15.8L9 35.5V39ZM30.4 17.55L28.65 15.8L32.15 19.3L30.4 17.55Z" fill="#613D96"/>
</svg>
